<svg width="24" height="24" viewBox="0 0 24 24" fill="none" xmlns="http://www.w3.org/2000/svg">
<path d="M18 1.25C18.4142 1.25 18.75 1.58579 18.75 2V2.63574C19.5546 2.86384 20.2339 3.23403 20.7988 3.84473C21.5618 4.66981 21.9089 5.70858 22.0781 7.00488C22.2452 8.28501 22.2498 9.91998 22.25 12C22.25 12.4142 21.9142 12.75 21.5 12.75C21.0858 12.75 20.75 12.4142 20.75 12C20.7499 10.7158 20.747 9.64962 20.7109 8.75H3.28906C3.25069 9.70687 3.25 10.8508 3.25 12.2432V12.7568C3.25 14.9551 3.25099 16.5339 3.40039 17.7354C3.5478 18.9207 3.82862 19.6241 4.30273 20.1367C4.76922 20.641 5.39716 20.9334 6.4668 21.0889C7.56448 21.2484 9.01178 21.25 11.0498 21.25C11.464 21.25 11.7998 21.5858 11.7998 22C11.7998 22.4142 11.464 22.75 11.0498 22.75H10.9893C9.02556 22.75 7.46901 22.7503 6.25098 22.5732C4.99258 22.3903 3.98672 22.0045 3.20117 21.1553C2.42359 20.3144 2.0777 19.2521 1.91211 17.9209C1.74984 16.6161 1.74999 14.9431 1.75 12.8096V12.1904C1.74999 10.0569 1.74984 8.3839 1.91211 7.0791C2.0777 5.7479 2.42359 4.68557 3.20117 3.84473C3.76607 3.23403 4.44535 2.86384 5.25 2.63574V2C5.25 1.58579 5.58579 1.25 6 1.25C6.41421 1.25 6.75 1.58579 6.75 2V2.36523C7.88605 2.24932 9.28407 2.24998 10.9893 2.25H13.0107C14.7159 2.24998 16.114 2.24932 17.25 2.36523V2C17.25 1.58579 17.5858 1.25 18 1.25ZM17 13.25C17.4142 13.25 17.75 13.5858 17.75 14V17.25H21C21.4142 17.25 21.75 17.5858 21.75 18C21.75 18.4142 21.4142 18.75 21 18.75H17.75V22C17.75 22.4142 17.4142 22.75 17 22.75C16.5858 22.75 16.25 22.4142 16.25 22V18.75H13C12.5858 18.75 12.25 18.4142 12.25 18C12.25 17.5858 12.5858 17.25 13 17.25H16.25V14C16.25 13.5858 16.5858 13.25 17 13.25ZM11.0498 3.75C9.18218 3.75 7.81099 3.75294 6.75 3.87598V4C6.75 4.41421 6.41421 4.75 6 4.75C5.65792 4.75 5.37237 4.52011 5.28223 4.20703C4.87357 4.36922 4.56265 4.58229 4.30273 4.86328C3.83057 5.37382 3.55024 6.07347 3.40234 7.25H20.5967C20.5945 7.23283 20.593 7.21526 20.5908 7.19824C20.4413 6.05289 20.1625 5.36628 19.6973 4.86328C19.4372 4.5821 19.1259 4.36926 18.7168 4.20703C18.6266 4.51997 18.342 4.75 18 4.75C17.5858 4.75 17.25 4.41421 17.25 4V3.87598C16.189 3.75294 14.8178 3.75 12.9502 3.75H11.0498Z" fill="#FFC107"/>
</svg>
