<svg width="24" height="24" viewBox="0 0 24 24" fill="none" xmlns="http://www.w3.org/2000/svg">
<path opacity="0.4" d="M1.2002 16.1895C1.23939 16.1896 1.29452 16.2121 1.4043 16.2568C2.69123 16.7811 4.30963 17.06 6.12109 17.1787C6.30159 17.1905 6.39226 17.1962 6.44629 17.2539C6.50007 17.3116 6.5 17.4012 6.5 17.5801V19.7998C6.5 20.3353 6.625 20.8035 6.81348 21.2041C6.98847 21.5761 7.07592 21.7623 7.00879 21.8574C6.94157 21.9525 6.75908 21.9348 6.39453 21.8984C5.35009 21.7942 4.39889 21.613 3.60938 21.3701C2.96793 21.1727 2.37635 20.9168 1.92285 20.5869C1.49117 20.2729 1 19.7494 1 19V16.5205C1 16.4075 0.999978 16.3508 1.01465 16.3145C1.0463 16.2369 1.11645 16.1895 1.2002 16.1895ZM1.24805 10.4355C1.2684 10.4406 1.29986 10.4563 1.3623 10.4863C2.66014 11.1112 4.29418 11.4832 6.12988 11.6475C6.30644 11.6633 6.39485 11.6715 6.44727 11.7285C6.49968 11.7858 6.5 11.8742 6.5 12.0498V15.2734C6.5 15.4721 6.4999 15.5715 6.43652 15.6309C6.3729 15.6901 6.27448 15.6838 6.07812 15.6699C4.42599 15.5529 3.03189 15.2985 1.9707 14.8662C1.7852 14.7906 1.61167 14.7103 1.45117 14.626C1.24636 14.5183 1.14425 14.4639 1.07227 14.3447C1.00032 14.2255 1 14.0929 1 13.8281V10.707C1 10.642 0.999622 10.6093 1.00391 10.5889C1.02797 10.4752 1.1352 10.4079 1.24805 10.4355ZM8.5 1C10.3755 1 12.116 1.26157 13.4229 1.71387C14.0715 1.93839 14.668 2.22903 15.1221 2.60059C15.5688 2.96616 16 3.51776 16 4.25V6.00586C16 6.18555 15.9996 6.27526 15.9639 6.3418C15.9356 6.39433 15.8943 6.4356 15.8418 6.46387C15.7752 6.49961 15.6836 6.5 15.5 6.5C13.5031 6.5 11.5888 6.77665 10.0859 7.29688C9.34639 7.55289 8.56936 7.9144 7.92773 8.43945C7.53955 8.75714 7.07628 9.24383 6.78516 9.90039C6.72101 10.0451 6.68882 10.1178 6.63379 10.1504C6.57879 10.1828 6.50692 10.1761 6.36426 10.1641C4.60815 10.0153 3.12638 9.67294 2.0127 9.13672C1.79077 9.02986 1.58492 8.91609 1.39551 8.7959C1.21435 8.68094 1.12334 8.62319 1.06152 8.51074C0.999919 8.3984 1 8.27617 1 8.03223V4.25C1.00002 3.51778 1.43125 2.96615 1.87793 2.60059C2.33198 2.22903 2.92853 1.93839 3.57715 1.71387C4.88401 1.26157 6.62449 1 8.5 1ZM8.5 3C6.78588 3 5.2761 3.24157 4.23047 3.60352C3.70308 3.7861 3.34827 3.98171 3.14453 4.14844C3.0787 4.20232 3.0787 4.29768 3.14453 4.35156C3.34827 4.51829 3.70308 4.7139 4.23047 4.89648C5.2761 5.25843 6.78588 5.5 8.5 5.5C10.2141 5.5 11.7239 5.25843 12.7695 4.89648C13.2969 4.7139 13.6517 4.51829 13.8555 4.35156C13.9213 4.29768 13.9213 4.20232 13.8555 4.14844C13.6517 3.98171 13.2969 3.7861 12.7695 3.60352C11.7239 3.24157 10.2141 3 8.5 3Z" fill="#FFC107"/>
<path d="M22.9512 16.7207C23.0001 16.7498 23 16.8287 23 16.9854V19.8027C23 20.5374 22.5587 21.0837 22.1143 21.4395C21.6601 21.8028 21.0642 22.0866 20.417 22.3057C19.1123 22.7473 17.3738 23.0029 15.5 23.0029C13.6262 23.0029 11.8877 22.7473 10.583 22.3057C9.93576 22.0866 9.33986 21.8028 8.88574 21.4395C8.44133 21.0837 8.00001 20.5374 8 19.8027V16.9854C8 16.8288 7.99997 16.7498 8.04883 16.7207C8.09789 16.6917 8.1685 16.7298 8.30859 16.8066C10.1439 17.8137 12.6521 18.2519 15.5 18.252C18.3479 18.252 20.8561 17.8137 22.6914 16.8066C22.8315 16.7298 22.9021 16.6917 22.9512 16.7207ZM15.5 8C17.3755 8 19.116 8.26157 20.4229 8.71387C21.0715 8.93839 21.668 9.22903 22.1221 9.60059C22.5687 9.96612 22.9999 10.5179 23 11.25V13.8809C23 14.3335 22.9995 14.5596 22.875 14.7852C22.7505 15.0108 22.5967 15.1084 22.2881 15.3027C20.7752 16.2553 18.4418 16.75 15.5 16.75C12.5583 16.75 10.2248 16.2553 8.71191 15.3027C8.40331 15.1084 8.24953 15.0107 8.125 14.7852C8.0005 14.5596 8 14.3335 8 13.8809V11.25C8 10.5178 8.43124 9.96616 8.87793 9.60059C9.33198 9.22903 9.92853 8.93839 10.5771 8.71387C11.884 8.26157 13.6245 8 15.5 8ZM15.5 10C13.7859 10 12.2761 10.2416 11.2305 10.6035C10.7031 10.7861 10.3483 10.9817 10.1445 11.1484C10.0787 11.2023 10.0787 11.2977 10.1445 11.3516C10.3483 11.5183 10.7031 11.7139 11.2305 11.8965C12.2761 12.2584 13.7859 12.5 15.5 12.5C17.2141 12.5 18.7239 12.2584 19.7695 11.8965C20.2969 11.7139 20.6517 11.5183 20.8555 11.3516C20.9213 11.2977 20.9213 11.2023 20.8555 11.1484C20.6517 10.9817 20.2969 10.7861 19.7695 10.6035C18.7239 10.2416 17.2141 10 15.5 10Z" fill="#FFC107"/>
</svg>
