<svg width="24" height="24" viewBox="0 0 24 24" fill="none" xmlns="http://www.w3.org/2000/svg">
<path opacity="0.4" d="M22.75 12.0528C22.75 13.7768 22.75 15.1427 22.6124 16.2222C22.4707 17.3333 22.1732 18.239 21.507 18.9862C21.3093 19.208 21.0919 19.4125 20.8574 19.5977C20.074 20.2164 19.1316 20.4901 17.9694 20.6214C16.8308 20.75 15.3866 20.75 13.5475 20.75H10.4525C8.61345 20.75 7.16917 20.75 6.03058 20.6214C4.86842 20.4901 3.926 20.2164 3.14263 19.5977C2.90811 19.4125 2.69068 19.2079 2.49298 18.9862C1.82681 18.239 1.52932 17.3333 1.38763 16.2222C1.24998 15.1427 1.24999 13.7767 1.25 12.0527V11.9473C1.25 11.3715 1.24999 10.8357 1.25512 10.3371C1.25795 10.0614 1.25937 9.92356 1.34704 9.83678C1.43472 9.75 1.57361 9.75 1.85139 9.75H22.1486C22.4264 9.75 22.5653 9.75 22.653 9.83678C22.7406 9.92356 22.7421 10.0614 22.7449 10.3371C22.75 10.8356 22.75 11.3715 22.75 11.9473V12.0528Z" fill="#FFC107"/>
<path d="M12.5 15.25C12.9142 15.25 13.25 15.5858 13.25 16C13.25 16.4142 12.9142 16.75 12.5 16.75H11C10.5858 16.75 10.25 16.4142 10.25 16C10.25 15.5858 10.5858 15.25 11 15.25H12.5ZM19 15.25C19.4142 15.25 19.75 15.5858 19.75 16C19.75 16.4142 19.4142 16.75 19 16.75H15.5C15.0858 16.75 14.75 16.4142 14.75 16C14.75 15.5858 15.0858 15.25 15.5 15.25H19ZM13.5488 3.25C15.3877 3.24999 16.8322 3.2503 17.9707 3.37891C19.1327 3.5102 20.0751 3.78375 20.8584 4.40234C21.0928 4.58749 21.3102 4.792 21.5078 5.01367C22.174 5.76089 22.4716 6.66717 22.6133 7.77832C22.6295 7.90559 22.6376 7.96939 22.623 8.02539C22.5996 8.11514 22.5304 8.19392 22.4443 8.22852C22.3905 8.25001 22.3229 8.25 22.1885 8.25H1.81348C1.6787 8.25 1.61049 8.25016 1.55664 8.22852C1.47074 8.19385 1.40231 8.11502 1.37891 8.02539C1.36438 7.96938 1.37244 7.90562 1.38867 7.77832C1.53037 6.66717 1.82797 5.76089 2.49414 5.01367C2.69179 4.792 2.90911 4.58749 3.14355 4.40234C3.92687 3.78373 4.86921 3.5102 6.03125 3.37891C7.16979 3.2503 8.61424 3.24999 10.4531 3.25H13.5488Z" fill="#FFC107"/>
</svg>
