<svg width="24" height="24" viewBox="0 0 24 24" fill="none" xmlns="http://www.w3.org/2000/svg">
<path opacity="0.4" fill-rule="evenodd" clip-rule="evenodd" d="M13.8089 1.361C14.1689 1.141 14.6288 1.261 14.8388 1.611C15.4188 2.581 15.6988 4.73097 13.4788 6.58097C13.1588 6.84097 12.6889 6.80087 12.4189 6.48087C12.1589 6.16087 12.1989 5.69081 12.5189 5.42081C14.1389 4.07081 13.7689 2.75103 13.5489 2.39103C13.3389 2.03103 13.4589 1.571 13.8089 1.361ZM14.8288 11.101C15.7588 12.041 16.5289 12.8009 17.0189 13.4609C17.5289 14.1509 17.8688 14.8809 17.7088 15.7209C17.5588 16.5609 16.9789 17.121 16.2589 17.581C15.5489 18.031 14.5689 18.4709 13.3589 19.0009L9.92892 20.5309C7.89892 21.4309 6.28881 22.1409 5.06881 22.4909C3.87881 22.8409 2.70888 22.941 1.88888 22.111C1.05888 21.291 1.15888 20.1208 1.50888 18.9308C1.85888 17.7108 2.56884 16.101 3.46884 14.071L4.99887 10.641C5.52887 9.43103 5.96891 8.45088 6.41891 7.74088C6.87891 7.02088 7.4389 6.44093 8.2789 6.29093C9.1189 6.13093 9.84891 6.47087 10.5389 6.98087C11.1989 7.47087 11.9589 8.24081 12.8989 9.17081L14.8288 11.101ZM22.3889 9.1608C21.4189 8.5808 19.2689 8.30091 17.4189 10.5209C17.1589 10.8409 17.1989 11.311 17.5189 11.581C17.8389 11.841 18.3088 11.8009 18.5788 11.4809C19.9288 9.86087 21.2489 10.2308 21.6089 10.4508C21.9689 10.6608 22.4289 10.5408 22.6389 10.1908C22.8589 9.83083 22.7389 9.3708 22.3889 9.1608Z" fill="#4CAF50"/>
<path fill-rule="evenodd" clip-rule="evenodd" d="M17.9995 1.25116C18.4095 1.25116 18.7495 1.59116 18.7495 2.00116V2.02118C18.7495 2.43118 18.4095 2.77118 17.9995 2.77118C17.5895 2.77118 17.2495 2.43118 17.2495 2.02118V2.00116C17.2495 1.59116 17.5895 1.25116 17.9995 1.25116ZM19.5295 5.53119C19.8195 5.24119 19.8195 4.76113 19.5295 4.47113C19.2395 4.18113 18.7595 4.18113 18.4695 4.47113L15.4695 7.47113C15.1795 7.76113 15.1795 8.24119 15.4695 8.53119C15.7595 8.82119 16.2395 8.82119 16.5295 8.53119L19.5295 5.53119ZM15.2095 18.1513L5.84949 8.7912C5.63949 9.2212 5.41957 9.70115 5.17957 10.2411L13.7595 18.8212C14.2995 18.5812 14.7795 18.3613 15.2095 18.1513ZM3.67957 13.6113L10.3795 20.3212L9.92957 20.5212C9.57957 20.6812 9.23956 20.8311 8.91956 20.9811L3.01953 15.0812C3.16953 14.7612 3.31948 14.4212 3.46948 14.0712L3.67957 13.6113ZM22.7495 6.00116C22.7495 5.59116 22.4095 5.25116 21.9995 5.25116C21.5895 5.25116 21.2495 5.59116 21.2495 6.00116V6.02118C21.2495 6.43118 21.5895 6.77118 21.9995 6.77118C22.4095 6.77118 22.7495 6.43118 22.7495 6.02118V6.00116ZM20.9995 12.2512C21.4095 12.2512 21.7495 12.5912 21.7495 13.0012V13.0212C21.7495 13.4312 21.4095 13.7712 20.9995 13.7712C20.5895 13.7712 20.2495 13.4312 20.2495 13.0212V13.0012C20.2495 12.5912 20.5895 12.2512 20.9995 12.2512ZM11.7495 3.00116C11.7495 2.59116 11.4095 2.25116 10.9995 2.25116C10.5895 2.25116 10.2495 2.59116 10.2495 3.00116V3.02118C10.2495 3.43118 10.5895 3.77118 10.9995 3.77118C11.4095 3.77118 11.7495 3.43118 11.7495 3.02118V3.00116Z" fill="#4CAF50"/>
</svg>
